<svg xmlns="http://www.w3.org/2000/svg" viewBox="0 0 96 96" width="96" height="96"><defs><linearGradient id="g" x1="0" y1="0" x2="1" y2="1"><stop offset="0" stop-color="#adc6ff"></stop><stop offset="1" stop-color="#4edea3"></stop></linearGradient></defs><path fill="url(#g)" fill-rule="evenodd" d="M38,20 L58,20 Q67,20 71.93,27.52 L81.07,41.48 Q86,49 81.07,56.52 L71.93,70.48 Q67,78 58,78 L38,78 Q29,78 24.07,70.48 L14.93,56.52 Q10,49 14.93,41.48 L24.07,27.52 Q29,20 38,20 Z M31.63,51.25 a6,10.5 12 1,0 11.74,2.50 a6,10.5 12 1,0 -11.74,-2.50 Z M52.63,53.75 a6,10.5 -12 1,0 11.74,-2.50 a6,10.5 -12 1,0 -11.74,2.50 Z"></path></svg>